<svg width="120" height="20" font-family="Verdana, sans-serif" xmlns="http://www.w3.org/2000/svg">
        <path fill="#555" d="M110.3956,0H5.0952l-.001.00006H3.49145A3.27386,3.27386,0,0,0,0,2.99988V17a3.27383,3.27383,0,0,0,3.49145,3H110.3956c2.814,0,5.0952-1.34314,5.0952-3V3C115.4908,1.34314,113.20957,0,110.3956,0Z"/><g fill="#fff" transform="translate(0,0.7)">
      <path d="M7.41141,8.86628A3.96487,3.96487,0,0,1,9.25305,6.46449L8.4039,4.99788A5.66287,5.66287,0,0,0,5.7725,8.42876Z"/>
      <path d="M10.20919,6.06776a3.97645,3.97645,0,0,1,1.02188-.1335l-.00163-1.695a5.66515,5.66515,0,0,0-1.46081.19105Z"/>
      <path d="M12.26155,6.06746a3.964,3.964,0,0,1,2.39894,1.83989L16.129,7.05811a5.66477,5.66477,0,0,0-3.42985-2.62775Z"/>
      <path d="M5.58233,9.89359a5.65418,5.65418,0,0,0,.192,1.46025l1.63816-.43995A3.93459,3.93459,0,0,1,7.27811,9.892l-1.69578.00163Z"/>
      <path d="M6.34169,12.71846a5.66441,5.66441,0,0,0,.89779,1.16644L8.439,12.6859a4.02322,4.02322,0,0,1-.62965-.81668Z"/>
      <path d="M8.41333,14.784a5.6201,5.6201,0,0,0,2.82239.75325l-.00162-1.695a3.93741,3.93741,0,0,1-1.97448-.52729Z"/>
      <path d="M14.66242,11.86693a3.96384,3.96384,0,0,1-2.399,1.84057l.44059,1.63755a5.66624,5.66624,0,0,0,3.42774-2.63189Z"/>
      <path d="M16.69744,11.40093a5.66,5.66,0,0,0,.01008-2.93013l-1.64308.44052a3.95261,3.95261,0,0,1-.009,2.05141Z"/>
    </g><g>
      <text opacity="0.5" x="22" y="15" font-size="11">
        code quality
      </text>
      <text fill="#fff" x="22" y="14" font-size="11">
        code quality
      </text>
    </g><g>
      <path fill="#bcce15" d="M114.4026,0h-13.932L100.46986,0H96.98762V20h4V20h13.415a3.26866,3.26866,0,0,0,3.483-3V3A3.26866,3.26866,0,0,0,114.4026,0Z"/>
      <text visibility="hidden">
        C
      </text>
      <path d="M112.15391,8.91618h-1.40569L110.55394,7.66a1.96983,1.96983,0,0,0-.70225-.44033,2.808,2.808,0,0,0-1.00014-.16185,2.21832,2.21832,0,0,0-1.89431.89357,3.81031,3.81031,0,0,0-.664,2.33109v.33021a3.85426,3.85426,0,0,0,.66047,2.3376,2.1781,2.1781,0,0,0,1.8649.9,3.08008,3.08008,0,0,0,1.02015-.16185,1.70249,1.70249,0,0,0,.71521-.44033l.19428-1.25621h1.40569v1.8649a4.06293,4.06293,0,0,1-1.454,1.05252,4.83855,4.83855,0,0,1-1.97792.39145,4.03319,4.03319,0,0,1-3.10808-1.31449,4.7828,4.7828,0,0,1-1.21148-3.37361v-.31725a4.81345,4.81345,0,0,1,1.20442-3.37361A4.0222,4.0222,0,0,1,108.722,5.60086a4.7306,4.7306,0,0,1,1.97437.3985,4.23016,4.23016,0,0,1,1.45753,1.05191Z" opacity="0.2"/>
      <path fill="#fff" d="M112.15391,8.46537h-1.40569l-.19428-1.25621a1.96983,1.96983,0,0,0-.70225-.44033,2.808,2.808,0,0,0-1.00014-.16185,2.21832,2.21832,0,0,0-1.89431.89357,3.81031,3.81031,0,0,0-.664,2.33109v.33021a3.85426,3.85426,0,0,0,.66047,2.3376,2.1781,2.1781,0,0,0,1.8649.9,3.08008,3.08008,0,0,0,1.02015-.16185,1.70249,1.70249,0,0,0,.71521-.44033l.19428-1.25621h1.40569V13.406a4.06293,4.06293,0,0,1-1.454,1.05252A4.83855,4.83855,0,0,1,108.722,14.85a4.03319,4.03319,0,0,1-3.10808-1.31449,4.7828,4.7828,0,0,1-1.21148-3.37361V9.8446A4.81345,4.81345,0,0,1,105.60687,6.471,4.0222,4.0222,0,0,1,108.722,5.15005a4.7306,4.7306,0,0,1,1.97437.3985,4.23016,4.23016,0,0,1,1.45753,1.05191Z"/>
    </g>
      </svg>